# 3ds Max Wavefront OBJ Exporter v0.97b - (c)2007 guruware
# File Created: 25.12.2020 19:01:54

mtllib ????.mtl

#
# object eye_L
#

v  -0.0367 0.0761 0.1753
v  0.0000 -0.0001 0.1946
v  0.0366 0.0761 0.1753
v  0.0000 0.0845 0.1753
v  -0.0823 0.0188 0.1753
v  -0.0660 0.0526 0.1753
v  -0.0660 -0.0526 0.1753
v  -0.0823 -0.0187 0.1753
v  0.0000 -0.0844 0.1753
v  -0.0367 -0.0760 0.1753
v  0.0660 -0.0526 0.1753
v  0.0366 -0.0760 0.1753
v  0.0823 0.0188 0.1753
v  0.0823 -0.0187 0.1753
v  0.0660 0.0526 0.1753
v  0.0000 0.1522 0.1213
v  -0.0660 0.1371 0.1213
v  -0.1190 0.0949 0.1213
v  -0.1484 0.0339 0.1213
v  -0.1484 -0.0338 0.1213
v  -0.1190 -0.0949 0.1213
v  -0.0660 -0.1371 0.1213
v  0.0000 -0.1522 0.1213
v  0.0660 -0.1371 0.1213
v  0.1190 -0.0949 0.1213
v  0.1483 -0.0338 0.1213
v  0.1483 0.0339 0.1213
v  0.1190 0.0949 0.1213
v  0.0660 0.1371 0.1213
v  0.0000 0.1898 0.0433
v  -0.0823 0.1709 0.0433
v  -0.1484 0.1184 0.0433
v  -0.1850 0.0423 0.0433
v  -0.1850 -0.0423 0.0433
v  -0.1484 -0.1184 0.0433
v  -0.0823 -0.1709 0.0433
v  0.0000 -0.1897 0.0433
v  0.0823 -0.1709 0.0433
v  0.1483 -0.1184 0.0433
v  0.1850 -0.0423 0.0433
v  0.1850 0.0423 0.0433
v  0.1483 0.1184 0.0433
v  0.0823 0.1709 0.0433
v  0.0000 0.1898 -0.0433
v  -0.0823 0.1709 -0.0433
v  -0.1484 0.1184 -0.0433
v  -0.1850 0.0423 -0.0433
v  -0.1850 -0.0423 -0.0433
v  -0.1484 -0.1184 -0.0433
v  -0.0823 -0.1709 -0.0433
v  0.0000 -0.1897 -0.0433
v  0.0823 -0.1709 -0.0433
v  0.1483 -0.1184 -0.0433
v  0.1850 -0.0423 -0.0433
v  0.1850 0.0423 -0.0433
v  0.1483 0.1184 -0.0433
v  0.0823 0.1709 -0.0433
v  0.0000 0.1522 -0.1214
v  -0.0660 0.1371 -0.1214
v  -0.1190 0.0949 -0.1214
v  -0.1484 0.0339 -0.1214
v  -0.1484 -0.0338 -0.1214
v  -0.1190 -0.0949 -0.1214
v  -0.0660 -0.1371 -0.1214
v  0.0000 -0.1522 -0.1214
v  0.0660 -0.1371 -0.1214
v  0.1190 -0.0949 -0.1214
v  0.1483 -0.0338 -0.1214
v  0.1483 0.0339 -0.1214
v  0.1190 0.0949 -0.1214
v  0.0660 0.1371 -0.1214
v  0.0000 0.0845 -0.1754
v  -0.0367 0.0761 -0.1754
v  -0.0660 0.0526 -0.1754
v  -0.0823 0.0188 -0.1754
v  -0.0823 -0.0187 -0.1754
v  -0.0660 -0.0526 -0.1754
v  -0.0367 -0.0760 -0.1754
v  0.0000 -0.0844 -0.1754
v  0.0366 -0.0760 -0.1754
v  0.0660 -0.0526 -0.1754
v  0.0823 -0.0187 -0.1754
v  0.0823 0.0188 -0.1754
v  0.0660 0.0526 -0.1754
v  0.0366 0.0761 -0.1754
v  0.0000 -0.0001 -0.1946
# 86 vertices

vn -0.1957 0.4063 0.8926
vn 0.0000 0.0000 1.0000
vn 0.1957 0.4063 0.8926
vn 0.0000 0.4592 0.8883
vn -0.4396 0.1003 0.8926
vn -0.3590 0.2863 0.8883
vn -0.3526 -0.2812 0.8926
vn -0.4477 -0.1022 0.8883
vn 0.0000 -0.4509 0.8926
vn -0.1993 -0.4138 0.8883
vn 0.3526 -0.2812 0.8926
vn 0.1993 -0.4138 0.8883
vn 0.4396 0.1003 0.8926
vn 0.4477 -0.1022 0.8883
vn 0.3590 0.2863 0.8883
vn 0.0000 0.7935 0.6085
vn -0.3443 0.7150 0.6085
vn -0.6204 0.4948 0.6085
vn -0.7737 0.1766 0.6085
vn -0.7737 -0.1766 0.6085
vn -0.6204 -0.4948 0.6085
vn -0.3443 -0.7150 0.6085
vn 0.0000 -0.7935 0.6085
vn 0.3443 -0.7150 0.6085
vn 0.6204 -0.4948 0.6085
vn 0.7737 -0.1766 0.6085
vn 0.7737 0.1766 0.6085
vn 0.6204 0.4948 0.6085
vn 0.3443 0.7150 0.6085
vn 0.0000 0.9764 0.2160
vn -0.4236 0.8797 0.2160
vn -0.7634 0.6088 0.2160
vn -0.9519 0.2173 0.2160
vn -0.9519 -0.2173 0.2160
vn -0.7634 -0.6088 0.2160
vn -0.4236 -0.8797 0.2160
vn 0.0000 -0.9764 0.2160
vn 0.4236 -0.8797 0.2160
vn 0.7634 -0.6088 0.2160
vn 0.9519 -0.2173 0.2160
vn 0.9519 0.2173 0.2160
vn 0.7634 0.6088 0.2160
vn 0.4236 0.8797 0.2160
vn 0.0000 0.9764 -0.2160
vn -0.4236 0.8797 -0.2160
vn -0.7634 0.6088 -0.2160
vn -0.9519 0.2173 -0.2160
vn -0.9519 -0.2173 -0.2160
vn -0.7634 -0.6088 -0.2160
vn -0.4236 -0.8797 -0.2160
vn 0.0000 -0.9764 -0.2160
vn 0.4236 -0.8797 -0.2160
vn 0.7634 -0.6088 -0.2160
vn 0.9519 -0.2173 -0.2160
vn 0.9519 0.2173 -0.2160
vn 0.7634 0.6088 -0.2160
vn 0.4236 0.8797 -0.2160
vn 0.0000 0.7935 -0.6085
vn -0.3443 0.7150 -0.6085
vn -0.6204 0.4948 -0.6085
vn -0.7737 0.1766 -0.6085
vn -0.7737 -0.1766 -0.6085
vn -0.6204 -0.4948 -0.6085
vn -0.3443 -0.7150 -0.6085
vn 0.0000 -0.7935 -0.6085
vn 0.3443 -0.7150 -0.6085
vn 0.6204 -0.4948 -0.6085
vn 0.7737 -0.1766 -0.6085
vn 0.7737 0.1766 -0.6085
vn 0.6204 0.4948 -0.6085
vn 0.3443 0.7150 -0.6085
vn 0.0000 0.4592 -0.8883
vn -0.1957 0.4063 -0.8926
vn -0.3590 0.2863 -0.8883
vn -0.4396 0.1003 -0.8926
vn -0.4477 -0.1022 -0.8883
vn -0.3526 -0.2812 -0.8926
vn -0.1993 -0.4138 -0.8883
vn 0.0000 -0.4509 -0.8926
vn 0.1993 -0.4138 -0.8883
vn 0.3526 -0.2812 -0.8926
vn 0.4477 -0.1022 -0.8883
vn 0.4396 0.1003 -0.8926
vn 0.3590 0.2863 -0.8883
vn 0.1957 0.4063 -0.8926
vn 0.0000 0.0000 -1.0000
# 86 vertex normals

vt 0.8366 0.7010 0.0000
vt 0.7184 0.6441 0.0000
vt 0.8366 0.5871 0.0000
vt 0.8496 0.6441 0.0000
vt 0.7476 0.7721 0.0000
vt 0.8002 0.7467 0.0000
vt 0.6365 0.7467 0.0000
vt 0.6891 0.7721 0.0000
vt 0.5871 0.6441 0.0000
vt 0.6001 0.7010 0.0000
vt 0.6365 0.5414 0.0000
vt 0.6001 0.5871 0.0000
vt 0.7476 0.5161 0.0000
vt 0.6891 0.5161 0.0000
vt 0.8002 0.5414 0.0000
vt 0.2536 0.4998 0.0000
vt 0.2968 0.5075 0.0000
vt 0.2958 0.6046 0.0000
vt 0.2197 0.5949 0.0000
vt 0.1111 0.5107 0.0000
vt 0.1529 0.5047 0.0000
vt 0.1833 0.5971 0.0000
vt 0.1096 0.6059 0.0000
vt 0.0690 0.5029 0.0000
vt 0.0356 0.5955 0.0000
vt 0.1098 0.4877 0.0000
vt 0.0678 0.4937 0.0000
vt 0.0372 0.4009 0.0000
vt 0.1106 0.3921 0.0000
vt 0.1523 0.4953 0.0000
vt 0.1856 0.4016 0.0000
vt 0.2923 0.4873 0.0000
vt 0.2504 0.4931 0.0000
vt 0.2204 0.4003 0.0000
vt 0.2937 0.3919 0.0000
vt 0.3347 0.4951 0.0000
vt 0.3684 0.4017 0.0000
vt 0.4755 0.4877 0.0000
vt 0.4336 0.4934 0.0000
vt 0.4037 0.4006 0.0000
vt 0.4769 0.3923 0.0000
vt 0.5179 0.4955 0.0000
vt 0.5516 0.4021 0.0000
vt 0.6588 0.4881 0.0000
vt 0.6169 0.4938 0.0000
vt 0.5869 0.4010 0.0000
vt 0.6601 0.3927 0.0000
vt 0.7012 0.4959 0.0000
vt 0.7349 0.4025 0.0000
vt 0.4827 0.5076 0.0000
vt 0.5253 0.5013 0.0000
vt 0.5566 0.5953 0.0000
vt 0.4823 0.6043 0.0000
vt 0.4400 0.5003 0.0000
vt 0.4063 0.5945 0.0000
vt 0.3394 0.5015 0.0000
vt 0.3703 0.5958 0.0000
vt 0.2948 0.6973 0.0000
vt 0.2012 0.6936 0.0000
vt 0.1093 0.6978 0.0000
vt 0.0152 0.6926 0.0000
vt 0.0199 0.3049 0.0000
vt 0.1117 0.3006 0.0000
vt 0.2038 0.3045 0.0000
vt 0.2951 0.3008 0.0000
vt 0.3870 0.3049 0.0000
vt 0.4783 0.3012 0.0000
vt 0.5703 0.3053 0.0000
vt 0.6616 0.3016 0.0000
vt 0.7535 0.3057 0.0000
vt 0.5741 0.6926 0.0000
vt 0.4813 0.6969 0.0000
vt 0.3877 0.6931 0.0000
vt 0.2939 0.7889 0.0000
vt 0.2010 0.7931 0.0000
vt 0.1076 0.7890 0.0000
vt 0.0144 0.7927 0.0000
vt 0.0196 0.2065 0.0000
vt 0.1130 0.2098 0.0000
vt 0.2044 0.2067 0.0000
vt 0.2964 0.2108 0.0000
vt 0.3877 0.2071 0.0000
vt 0.4796 0.2112 0.0000
vt 0.5709 0.2075 0.0000
vt 0.6629 0.2116 0.0000
vt 0.7542 0.2079 0.0000
vt 0.5740 0.7922 0.0000
vt 0.4804 0.7884 0.0000
vt 0.3875 0.7926 0.0000
vt 0.2929 0.8816 0.0000
vt 0.2185 0.8904 0.0000
vt 0.1822 0.8918 0.0000
vt 0.1061 0.8818 0.0000
vt 0.0314 0.8903 0.0000
vt 0.0368 0.1081 0.0000
vt 0.1129 0.1173 0.0000
vt 0.1887 0.1087 0.0000
vt 0.2230 0.1099 0.0000
vt 0.2978 0.1197 0.0000
vt 0.3710 0.1114 0.0000
vt 0.4063 0.1103 0.0000
vt 0.4810 0.1201 0.0000
vt 0.5542 0.1117 0.0000
vt 0.5895 0.1106 0.0000
vt 0.6643 0.1205 0.0000
vt 0.7375 0.1121 0.0000
vt 0.5555 0.8908 0.0000
vt 0.4794 0.8811 0.0000
vt 0.4049 0.8900 0.0000
vt 0.3690 0.8913 0.0000
vt 0.2920 0.9787 0.0000
vt 0.2493 0.9847 0.0000
vt 0.1479 0.9870 0.0000
vt 0.1047 0.9790 0.0000
vt 0.0620 0.9849 0.0000
vt 0.0703 0.0119 0.0000
vt 0.1138 0.0195 0.0000
vt 0.1570 0.0132 0.0000
vt 0.2567 0.0165 0.0000
vt 0.2991 0.0243 0.0000
vt 0.3410 0.0186 0.0000
vt 0.4400 0.0169 0.0000
vt 0.4824 0.0247 0.0000
vt 0.5243 0.0189 0.0000
vt 0.6232 0.0173 0.0000
vt 0.6656 0.0251 0.0000
vt 0.7075 0.0193 0.0000
vt 0.5217 0.9860 0.0000
vt 0.4785 0.9782 0.0000
vt 0.4358 0.9843 0.0000
vt 0.3352 0.9864 0.0000
vt 0.9808 0.9204 0.0000
vt 0.8625 0.8635 0.0000
vt 0.9808 0.8065 0.0000
vt 0.9938 0.8635 0.0000
vt 0.8917 0.7355 0.0000
vt 0.9444 0.7608 0.0000
vt 0.7807 0.7608 0.0000
vt 0.8333 0.7355 0.0000
vt 0.7312 0.8635 0.0000
vt 0.7443 0.8065 0.0000
vt 0.7807 0.9661 0.0000
vt 0.7443 0.9204 0.0000
vt 0.8917 0.9915 0.0000
vt 0.8333 0.9915 0.0000
vt 0.9444 0.9661 0.0000
# 146 texture coords

g eye_L
usemtl eye
s off
f 1/1/1 2/2/2 3/3/3 4/4/4 
f 5/5/5 2/2/2 1/1/1 6/6/6 
f 7/7/7 2/2/2 5/5/5 8/8/8 
f 9/9/9 2/2/2 7/7/7 10/10/10 
f 11/11/11 2/2/2 9/9/9 12/12/12 
f 13/13/13 2/2/2 11/11/11 14/14/14 
f 3/3/3 2/2/2 13/13/13 15/15/15 
f 1/16/1 4/17/4 16/18/16 17/19/17 
f 6/20/6 1/21/1 17/22/17 18/23/18 
f 5/24/5 6/20/6 18/23/18 19/25/19 
f 8/26/8 5/27/5 19/28/19 20/29/20 
f 7/30/7 8/26/8 20/29/20 21/31/21 
f 10/32/10 7/33/7 21/34/21 22/35/22 
f 9/36/9 10/32/10 22/35/22 23/37/23 
f 12/38/12 9/39/9 23/40/23 24/41/24 
f 11/42/11 12/38/12 24/41/24 25/43/25 
f 14/44/14 11/45/11 25/46/25 26/47/26 
f 13/48/13 14/44/14 26/47/26 27/49/27 
f 15/50/15 13/51/13 27/52/27 28/53/28 
f 3/54/3 15/50/15 28/53/28 29/55/29 
f 4/17/4 3/56/3 29/57/29 16/18/16 
f 17/19/17 16/18/16 30/58/30 31/59/31 
f 18/23/18 17/22/17 31/59/31 32/60/32 
f 19/25/19 18/23/18 32/60/32 33/61/33 
f 20/29/20 19/28/19 33/62/33 34/63/34 
f 21/31/21 20/29/20 34/63/34 35/64/35 
f 22/35/22 21/34/21 35/64/35 36/65/36 
f 23/37/23 22/35/22 36/65/36 37/66/37 
f 24/41/24 23/40/23 37/66/37 38/67/38 
f 25/43/25 24/41/24 38/67/38 39/68/39 
f 26/47/26 25/46/25 39/68/39 40/69/40 
f 27/49/27 26/47/26 40/69/40 41/70/41 
f 28/53/28 27/52/27 41/71/41 42/72/42 
f 29/55/29 28/53/28 42/72/42 43/73/43 
f 16/18/16 29/57/29 43/73/43 30/58/30 
f 31/59/31 30/58/30 44/74/44 45/75/45 
f 32/60/32 31/59/31 45/75/45 46/76/46 
f 33/61/33 32/60/32 46/76/46 47/77/47 
f 34/63/34 33/62/33 47/78/47 48/79/48 
f 35/64/35 34/63/34 48/79/48 49/80/49 
f 36/65/36 35/64/35 49/80/49 50/81/50 
f 37/66/37 36/65/36 50/81/50 51/82/51 
f 38/67/38 37/66/37 51/82/51 52/83/52 
f 39/68/39 38/67/38 52/83/52 53/84/53 
f 40/69/40 39/68/39 53/84/53 54/85/54 
f 41/70/41 40/69/40 54/85/54 55/86/55 
f 42/72/42 41/71/41 55/87/55 56/88/56 
f 43/73/43 42/72/42 56/88/56 57/89/57 
f 30/58/30 43/73/43 57/89/57 44/74/44 
f 45/75/45 44/74/44 58/90/58 59/91/59 
f 46/76/46 45/75/45 59/92/59 60/93/60 
f 47/77/47 46/76/46 60/93/60 61/94/61 
f 48/79/48 47/78/47 61/95/61 62/96/62 
f 49/80/49 48/79/48 62/96/62 63/97/63 
f 50/81/50 49/80/49 63/98/63 64/99/64 
f 51/82/51 50/81/50 64/99/64 65/100/65 
f 52/83/52 51/82/51 65/101/65 66/102/66 
f 53/84/53 52/83/52 66/102/66 67/103/67 
f 54/85/54 53/84/53 67/104/67 68/105/68 
f 55/86/55 54/85/54 68/105/68 69/106/69 
f 56/88/56 55/87/55 69/107/69 70/108/70 
f 57/89/57 56/88/56 70/108/70 71/109/71 
f 44/74/44 57/89/57 71/110/71 58/90/58 
f 59/91/59 58/90/58 72/111/72 73/112/73 
f 60/93/60 59/92/59 73/113/73 74/114/74 
f 61/94/61 60/93/60 74/114/74 75/115/75 
f 62/96/62 61/95/61 75/116/75 76/117/76 
f 63/97/63 62/96/62 76/117/76 77/118/77 
f 64/99/64 63/98/63 77/119/77 78/120/78 
f 65/100/65 64/99/64 78/120/78 79/121/79 
f 66/102/66 65/101/65 79/122/79 80/123/80 
f 67/103/67 66/102/66 80/123/80 81/124/81 
f 68/105/68 67/104/67 81/125/81 82/126/82 
f 69/106/69 68/105/68 82/126/82 83/127/83 
f 70/108/70 69/107/69 83/128/83 84/129/84 
f 71/109/71 70/108/70 84/129/84 85/130/85 
f 58/90/58 71/110/71 85/131/85 72/111/72 
f 85/132/85 86/133/86 73/134/73 72/135/72 
f 73/134/73 86/133/86 75/136/75 74/137/74 
f 75/136/75 86/133/86 77/138/77 76/139/76 
f 77/138/77 86/133/86 79/140/79 78/141/78 
f 79/140/79 86/133/86 81/142/81 80/143/80 
f 81/142/81 86/133/86 83/144/83 82/145/82 
f 83/144/83 86/133/86 85/132/85 84/146/84 
# 84 polygons

